<svg width="329" height="224" viewBox="0 0 329 224" fill="none" xmlns="http://www.w3.org/2000/svg">
<path d="M29 136H301" stroke="black" stroke-width="2"/>
<path d="M189.506 162.17C196.427 165.393 203.776 168.262 211.458 169.451C226.417 171.763 238.369 166.724 252.602 155.32C269.489 141.214 276.957 116.698 272.931 95.9076C270.309 82.3452 261.515 70.7821 251.533 61.9633C241.734 53.3161 230.751 42.8365 217.23 42.1149C193.328 40.8314 157.403 50.0998 149.044 80.1866C140.684 110.273 150.311 132.75 168.565 149.004C174.707 154.481 182.02 158.68 189.506 162.17Z" fill="#58B3CA"/>
<path fill-rule="evenodd" clip-rule="evenodd" d="M139.305 82.5H233.695C240.617 82.5 246.281 88.2414 246.281 95.2586V159.052H126.719V95.2586C126.719 88.2414 132.383 82.5 139.305 82.5Z" fill="white" stroke="black" stroke-width="2"/>
<path d="M126.609 159.052L114 184.569V193.5H259V184.569L246.391 159.052" stroke="black" stroke-width="2"/>
<path d="M167.421 183.931H205.579" stroke="black" stroke-width="2"/>
<rect x="180" y="106.583" width="10.2222" height="10.087" rx="2" fill="white" stroke="black" stroke-width="2"/>
<rect x="180" y="124.235" width="10.2222" height="10.087" rx="2" fill="white" stroke="black" stroke-width="2"/>
<rect x="197.889" y="106.583" width="10.2222" height="10.087" rx="2" fill="#58B3CA" stroke="#58B3CA" stroke-width="2"/>
<rect x="197.889" y="124.235" width="10.2222" height="10.087" rx="2" fill="white" stroke="black" stroke-width="2"/>
<rect x="215.778" y="106.583" width="10.2222" height="10.087" rx="2" fill="white" stroke="black" stroke-width="2"/>
<rect x="215.778" y="124.235" width="10.2222" height="10.087" rx="2" fill="white" stroke="black" stroke-width="2"/>
<path fill-rule="evenodd" clip-rule="evenodd" d="M75.8097 144.497C76.0365 144.741 76.2666 144.983 76.5 145.222C76.7334 144.983 76.9635 144.741 77.1903 144.497C76.9568 144.257 76.7267 144.014 76.5 143.769C76.2733 144.014 76.0432 144.257 75.8097 144.497ZM76.5 96.2315C76.2733 95.9861 76.0432 95.7434 75.8097 95.5036C76.0365 95.259 76.2666 95.0172 76.5 94.778C76.7334 95.0172 76.9635 95.259 77.1903 95.5036C76.9568 95.7434 76.7267 95.9861 76.5 96.2315Z" fill="white"/>
<path d="M76.5 145.222L75.7844 145.921L76.5 146.654L77.2156 145.921L76.5 145.222ZM75.8097 144.497L75.0932 143.799L74.4304 144.48L75.0765 145.177L75.8097 144.497ZM77.1903 144.497L77.9235 145.177L78.5696 144.48L77.9068 143.799L77.1903 144.497ZM76.5 143.769L77.2346 143.09L76.5 142.295L75.7654 143.09L76.5 143.769ZM76.5 96.2315L75.7654 96.91L76.5 97.7054L77.2346 96.91L76.5 96.2315ZM75.8097 95.5036L75.0765 94.8236L74.4304 95.5203L75.0932 96.2011L75.8097 95.5036ZM76.5 94.778L77.2156 94.0796L76.5 93.3464L75.7844 94.0796L76.5 94.778ZM77.1903 95.5036L77.9068 96.2011L78.5696 95.5203L77.9235 94.8236L77.1903 95.5036ZM77.2156 144.524C76.9882 144.291 76.7639 144.055 76.5429 143.817L75.0765 145.177C75.3091 145.428 75.5451 145.676 75.7844 145.921L77.2156 144.524ZM76.4571 143.817C76.2361 144.055 76.0118 144.291 75.7844 144.524L77.2156 145.921C77.4549 145.676 77.6909 145.428 77.9235 145.177L76.4571 143.817ZM75.7654 144.447C75.998 144.699 76.2342 144.948 76.4738 145.194L77.9068 143.799C77.6794 143.566 77.4553 143.329 77.2346 143.09L75.7654 144.447ZM76.5262 145.194C76.7658 144.948 77.002 144.699 77.2346 144.447L75.7654 143.09C75.5447 143.329 75.3206 143.566 75.0932 143.799L76.5262 145.194ZM77.2346 95.553C77.002 95.3012 76.7658 95.0521 76.5263 94.806L75.0932 96.2011C75.3206 96.4347 75.5447 96.6711 75.7654 96.91L77.2346 95.553ZM76.5429 96.1836C76.7639 95.9453 76.9882 95.7096 77.2156 95.4765L75.7844 94.0796C75.5451 94.3248 75.3091 94.5728 75.0765 94.8236L76.5429 96.1836ZM75.7844 95.4765C76.0118 95.7096 76.2361 95.9453 76.4571 96.1835L77.9235 94.8236C77.6909 94.5728 77.4549 94.3248 77.2156 94.0796L75.7844 95.4765ZM76.4738 94.806C76.2342 95.0521 75.998 95.3012 75.7654 95.553L77.2346 96.91C77.4553 96.671 77.6794 96.4347 77.9068 96.2011L76.4738 94.806Z" fill="black"/>
<path fill-rule="evenodd" clip-rule="evenodd" d="M66.4642 144.499C66.7654 144.646 67.0695 144.787 67.3763 144.922C67.4865 144.605 67.5905 144.287 67.6882 143.966C67.3803 143.829 67.0751 143.686 66.7731 143.537C66.6767 143.86 66.5738 144.181 66.4642 144.499ZM54.3707 115.05C54.0686 114.901 53.7635 114.758 53.4555 114.621C53.5532 114.3 53.6572 113.982 53.7674 113.665C54.0742 113.8 54.3783 113.941 54.6795 114.088C54.57 114.406 54.467 114.727 54.3707 115.05Z" fill="white"/>
<path d="M67.3763 144.922L66.974 145.837L67.9647 146.273L68.3207 145.251L67.3763 144.922ZM66.4642 144.499L65.5185 144.174L65.231 145.011L66.0262 145.398L66.4642 144.499ZM67.6882 143.966L68.6448 144.258L68.9027 143.412L68.0943 143.052L67.6882 143.966ZM66.7731 143.537L67.2165 142.64L66.1537 142.115L65.8148 143.251L66.7731 143.537ZM54.3707 115.05L53.9273 115.947L54.99 116.472L55.329 115.336L54.3707 115.05ZM53.4555 114.621L52.499 114.329L52.241 115.175L53.0494 115.535L53.4555 114.621ZM53.7674 113.665L54.1697 112.75L53.179 112.314L52.8231 113.336L53.7674 113.665ZM54.6795 114.088L55.6252 114.413L55.9128 113.576L55.1176 113.189L54.6795 114.088ZM67.7786 144.006C67.4839 143.877 67.1917 143.741 66.9022 143.6L66.0262 145.398C66.3392 145.551 66.6552 145.697 66.974 145.837L67.7786 144.006ZM66.7317 143.675C66.6378 143.983 66.5379 144.289 66.432 144.593L68.3207 145.251C68.4352 144.922 68.5433 144.591 68.6448 144.258L66.7317 143.675ZM66.3297 144.433C66.6441 144.589 66.9616 144.738 67.2822 144.88L68.0943 143.052C67.7989 142.921 67.5062 142.784 67.2165 142.64L66.3297 144.433ZM67.4099 144.824C67.5239 144.493 67.6311 144.159 67.7313 143.823L65.8148 143.251C65.7224 143.561 65.6236 143.869 65.5185 144.174L67.4099 144.824ZM54.8141 114.154C54.4997 113.998 54.1821 113.849 53.8616 113.707L53.0494 115.535C53.3449 115.666 53.6375 115.803 53.9273 115.947L54.8141 114.154ZM54.4121 114.912C54.5059 114.604 54.6059 114.298 54.7118 113.994L52.8231 113.336C52.7085 113.665 52.6005 113.996 52.499 114.329L54.4121 114.912ZM53.3651 114.581C53.6599 114.71 53.9521 114.846 54.2415 114.987L55.1176 113.189C54.8045 113.036 54.4885 112.89 54.1697 112.75L53.3651 114.581ZM53.7338 113.763C53.6198 114.094 53.5127 114.428 53.4124 114.764L55.329 115.336C55.4214 115.026 55.5201 114.718 55.6252 114.413L53.7338 113.763Z" fill="black"/>
<path fill-rule="evenodd" clip-rule="evenodd" d="M80.5488 135.642C80.5964 135.974 80.6523 136.305 80.7165 136.633C81.0398 136.545 81.3609 136.449 81.6794 136.344C81.6165 136.012 81.5624 135.679 81.5172 135.344C81.1972 135.452 80.8742 135.551 80.5488 135.642ZM94.1388 115.048C94.0936 114.713 94.0395 114.38 93.9767 114.048C94.2951 113.944 94.6162 113.847 94.9396 113.759C95.0037 114.088 95.0596 114.418 95.1072 114.75C94.7818 114.841 94.4589 114.94 94.1388 115.048Z" fill="white"/>
<path d="M80.7165 136.633L79.735 136.825L79.9411 137.882L80.9801 137.598L80.7165 136.633ZM80.5488 135.642L80.28 134.679L79.4342 134.915L79.5589 135.784L80.5488 135.642ZM81.6794 136.344L81.9908 137.295L82.8254 137.021L82.6619 136.158L81.6794 136.344ZM81.5172 135.344L82.5082 135.21L82.3461 134.01L81.1979 134.397L81.5172 135.344ZM94.1388 115.048L93.1478 115.182L93.3099 116.383L94.4581 115.996L94.1388 115.048ZM93.9767 114.048L93.6653 113.098L92.8306 113.371L92.9941 114.234L93.9767 114.048ZM94.9396 113.759L95.9211 113.568L95.7149 112.51L94.6759 112.794L94.9396 113.759ZM95.1072 114.75L95.376 115.713L96.2219 115.477L96.0971 114.608L95.1072 114.75ZM81.698 136.442C81.637 136.129 81.5839 135.815 81.5386 135.5L79.5589 135.784C79.6089 136.133 79.6676 136.48 79.735 136.825L81.698 136.442ZM81.368 135.394C81.0653 135.493 80.7602 135.585 80.4528 135.669L80.9801 137.598C81.3195 137.505 81.6565 137.404 81.9908 137.295L81.368 135.394ZM80.5262 135.478C80.5738 135.83 80.6307 136.181 80.6969 136.53L82.6619 136.158C82.6023 135.844 82.5511 135.528 82.5082 135.21L80.5262 135.478ZM80.8176 136.605C81.16 136.51 81.4998 136.405 81.8366 136.292L81.1979 134.397C80.8946 134.499 80.5885 134.593 80.28 134.679L80.8176 136.605ZM95.1298 114.914C95.0823 114.562 95.0253 114.211 94.9592 113.862L92.9941 114.234C93.0537 114.549 93.105 114.865 93.1478 115.182L95.1298 114.914ZM94.2881 114.998C94.5907 114.899 94.8959 114.808 95.2032 114.724L94.6759 112.794C94.3365 112.887 93.9995 112.988 93.6653 113.098L94.2881 114.998ZM93.9581 113.95C94.019 114.263 94.0721 114.577 94.1174 114.892L96.0971 114.608C96.0471 114.26 95.9884 113.913 95.9211 113.568L93.9581 113.95ZM94.8385 113.787C94.4961 113.882 94.1563 113.987 93.8195 114.101L94.4581 115.996C94.7615 115.894 95.0676 115.799 95.376 115.713L94.8385 113.787Z" fill="black"/>
<path d="M43 143H102V143.5C102 159.792 88.7924 173 72.5 173C56.2076 173 43 159.792 43 143.5V143Z" fill="#D1D0D6"/>
<path d="M145 106H160" stroke="black" stroke-width="2"/>
<path d="M145 115H170" stroke="black" stroke-width="2"/>
<path d="M145 124H170" stroke="black" stroke-width="2"/>
<path d="M145 133H170" stroke="black" stroke-width="2"/>
<path d="M198 109.235L203.102 113.5L210 104.5" stroke="black" stroke-width="2" stroke-linejoin="round"/>
</svg>
