<svg width="329" height="224" viewBox="0 0 329 224" fill="none" xmlns="http://www.w3.org/2000/svg">
<path d="M163.996 74.5438C162.752 75.2011 161.528 75.946 160.416 76.8136C156.447 79.9143 152.998 83.5915 149.74 87.4362C147.997 89.4939 146.109 91.6112 145.064 94.0528C142.727 99.5038 139.086 104.359 138.191 110.515C137.888 112.591 136.695 114.661 136.605 116.828C136.359 122.691 135.063 128.396 134.37 134.191C133.844 138.585 133.81 142.911 134.717 147.254C135.537 151.176 136.382 155.115 136.477 159.144C136.572 163.305 138.178 166.961 140.082 170.444C143.498 176.684 147.929 182.139 152.968 187.106C156.36 190.448 160.214 192.794 164.617 194.56C168.956 196.304 173.449 197.408 177.885 198.679C184.562 200.59 191.377 201.983 198.412 201.342C204.083 200.826 209.689 199.841 215.165 198.352C220.297 196.955 225.544 195.777 230.332 193.291C233.504 191.642 236.567 189.773 239.667 187.98C246.5 184.026 253.166 179.796 258.837 174.179C263.74 169.327 267.707 163.692 270.579 157.345C271.995 154.208 273.169 150.93 274.178 147.631C275.987 141.718 277.642 135.745 276.752 129.197C276.78 122.269 275.884 115.255 274.124 108.332C272.315 101.234 269.226 94.6995 265.847 88.3055C262.721 82.3953 257.448 78.5375 252.607 74.2792C250.272 72.225 247.47 70.9972 244.786 69.5792C213.72 52.5224 175.558 67.773 175.558 67.773C171.355 69.4451 167.945 72.4581 163.996 74.5438Z" fill="#EBC627"/>
<path d="M91 100.5H139" stroke="black" stroke-width="2"/>
<path d="M91 168.5H139" stroke="black" stroke-width="2"/>
<path d="M91 134.5H146" stroke="black" stroke-width="2"/>
<path d="M153 134.5H164" stroke="black" stroke-width="2"/>
<path d="M91 117.5H129" stroke="black" stroke-width="2"/>
<path d="M91 151.5H117" stroke="black" stroke-width="2"/>
<path d="M123 151.5H159" stroke="black" stroke-width="2"/>
<path d="M138 117.5H155" stroke="black" stroke-width="2"/>
<path fill-rule="evenodd" clip-rule="evenodd" d="M199.538 88H233.462C237.608 88 241 91.3261 241 95.3913V165.609C241 169.674 237.608 173 233.462 173H199.538C195.392 173 192 169.674 192 165.609V95.3913C192 91.3261 195.392 88 199.538 88Z" stroke="black" stroke-width="2"/>
<path fill-rule="evenodd" clip-rule="evenodd" d="M199.538 88H233.462C237.608 88 241 90.7391 241 94.087V158H192V94.087C192 90.7391 195.392 88 199.538 88Z" fill="#F9F9F9" stroke="black" stroke-width="2"/>
<circle cx="216.5" cy="165.5" r="3.5" fill="black"/>
<path d="M192 158H241" stroke="black" stroke-width="2"/>
<path fill-rule="evenodd" clip-rule="evenodd" d="M172 88H216V132L202 120H182C176.5 120 172 115.5 172 110V88Z" fill="#EBC627" stroke="black" stroke-width="2" stroke-linejoin="round"/>
<circle r="3" transform="matrix(-1 0 0 1 206 104)" fill="black"/>
<circle r="3" transform="matrix(-1 0 0 1 194 104)" fill="black"/>
<circle r="3" transform="matrix(-1 0 0 1 182 104)" fill="black"/>
<path fill-rule="evenodd" clip-rule="evenodd" d="M206 33H91V87L108.128 72.2727H193.766C200.495 72.2727 206 66.75 206 60V33Z" stroke="black" stroke-width="2" stroke-linejoin="round"/>
<path d="M191 52.5H107" stroke="black" stroke-width="2"/>
<circle cx="65.5" cy="73.5" r="13.5" fill="#D1D0D6"/>
</svg>
